<svg width="16" height="17" viewBox="0 0 16 17" fill="none" xmlns="http://www.w3.org/2000/svg">
<path d="M3.1875 13.75C3.52377 13.3734 5.09868 11.6403 5.56021 11.6403H10.4401C11.1089 11.6403 12.4741 13.0769 12.8125 13.5833M15 8.5C15 12.366 11.866 15.5 8 15.5C4.13401 15.5 1 12.366 1 8.5C1 4.63401 4.13401 1.5 8 1.5C11.866 1.5 15 4.63401 15 8.5ZM10.5075 6.11414C10.5075 4.77866 9.3801 3.6875 8.00021 3.6875C6.62035 3.6875 5.49293 4.77866 5.49293 6.11414C5.49293 7.44961 6.62035 8.54077 8.00021 8.54077C9.38007 8.54077 10.5075 7.44961 10.5075 6.11414Z" stroke="white" stroke-width="1.15"/>
</svg>
